v 0.200000 0.000000 0.000000
v 0.193185 0.000000 0.034509
v 0.173205 0.000000 0.066667
v 0.141421 0.000000 0.094281
v 0.100000 0.000000 0.115470
v 0.051764 0.000000 0.128790
v 0.000000 0.000000 0.133333
v -0.051764 0.000000 0.128790
v -0.100000 0.000000 0.115470
v -0.141421 0.000000 0.094281
v -0.173205 0.000000 0.066667
v -0.193185 0.000000 0.034509
v -0.200000 0.000000 0.000000
v -0.193185 0.000000 -0.034509
v -0.173205 0.000000 -0.066667
v -0.141421 0.000000 -0.094281
v -0.100000 0.000000 -0.115470
v -0.051764 0.000000 -0.128790
v -0.000000 0.000000 -0.133333
v 0.051764 0.000000 -0.128790
v 0.100000 0.000000 -0.115470
v 0.141421 0.000000 -0.094281
v 0.173205 0.000000 -0.066667
v 0.193185 0.000000 -0.034509
v 0.180000 -0.150000 0.000000
v 0.173867 -0.150000 0.031058
v 0.155885 -0.150000 0.060000
v 0.127279 -0.150000 0.084853
v 0.090000 -0.150000 0.103923
v 0.046587 -0.150000 0.115911
v 0.000000 -0.150000 0.120000
v -0.046587 -0.150000 0.115911
v -0.090000 -0.150000 0.103923
v -0.127279 -0.150000 0.084853
v -0.155885 -0.150000 0.060000
v -0.173867 -0.150000 0.031058
v -0.180000 -0.150000 0.000000
v -0.173867 -0.150000 -0.031058
v -0.155885 -0.150000 -0.060000
v -0.127279 -0.150000 -0.084853
v -0.090000 -0.150000 -0.103923
v -0.046587 -0.150000 -0.115911
v -0.000000 -0.150000 -0.120000
v 0.046587 -0.150000 -0.115911
v 0.090000 -0.150000 -0.103923
v 0.127279 -0.150000 -0.084853
v 0.155885 -0.150000 -0.060000
v 0.173867 -0.150000 -0.031058
v -0.030000 -0.000000 0.000000
v -0.034089 -0.000000 0.031058
v -0.046077 -0.000000 0.060000
v -0.065147 -0.000000 0.084853
v -0.090000 -0.000000 0.103923
v -0.118942 -0.000000 0.115911
v -0.150000 -0.000000 0.120000
v -0.181058 -0.000000 0.115911
v -0.210000 -0.000000 0.103923
v -0.234853 -0.000000 0.084853
v -0.253923 -0.000000 0.060000
v -0.265911 -0.000000 0.031058
v -0.270000 -0.000000 0.000000
v -0.265911 -0.000000 -0.031058
v -0.253923 -0.000000 -0.060000
v -0.234853 -0.000000 -0.084853
v -0.210000 -0.000000 -0.103923
v -0.181058 -0.000000 -0.115911
v -0.150000 -0.000000 -0.120000
v -0.118942 -0.000000 -0.115911
v -0.090000 -0.000000 -0.103923
v -0.065147 -0.000000 -0.084853
v -0.046077 -0.000000 -0.060000
v -0.034089 -0.000000 -0.031058
v -0.050000 -0.450000 0.000000
v -0.053407 -0.450000 0.025882
v -0.063397 -0.450000 0.050000
v -0.079289 -0.450000 0.070711
v -0.100000 -0.450000 0.086603
v -0.124118 -0.450000 0.096593
v -0.150000 -0.450000 0.100000
v -0.175882 -0.450000 0.096593
v -0.200000 -0.450000 0.086603
v -0.220711 -0.450000 0.070711
v -0.236603 -0.450000 0.050000
v -0.246593 -0.450000 0.025882
v -0.250000 -0.450000 0.000000
v -0.246593 -0.450000 -0.025882
v -0.236603 -0.450000 -0.050000
v -0.220711 -0.450000 -0.070711
v -0.200000 -0.450000 -0.086603
v -0.175882 -0.450000 -0.096593
v -0.150000 -0.450000 -0.100000
v -0.124118 -0.450000 -0.096593
v -0.100000 -0.450000 -0.086603
v -0.079289 -0.450000 -0.070711
v -0.063397 -0.450000 -0.050000
v -0.053407 -0.450000 -0.025882
v -0.060000 -0.900000 0.000000
v -0.063067 -0.900000 0.023294
v -0.072058 -0.900000 0.045000
v -0.086360 -0.900000 0.063640
v -0.105000 -0.900000 0.077942
v -0.126706 -0.900000 0.086933
v -0.150000 -0.900000 0.090000
v -0.173294 -0.900000 0.086933
v -0.195000 -0.900000 0.077942
v -0.213640 -0.900000 0.063640
v -0.227942 -0.900000 0.045000
v -0.236933 -0.900000 0.023294
v -0.240000 -0.900000 0.000000
v -0.236933 -0.900000 -0.023294
v -0.227942 -0.900000 -0.045000
v -0.213640 -0.900000 -0.063640
v -0.195000 -0.900000 -0.077942
v -0.173294 -0.900000 -0.086933
v -0.150000 -0.900000 -0.090000
v -0.126706 -0.900000 -0.086933
v -0.105000 -0.900000 -0.077942
v -0.086360 -0.900000 -0.063640
v -0.072058 -0.900000 -0.045000
v -0.063067 -0.900000 -0.023294
v 0.270000 -0.000000 0.000000
v 0.265911 -0.000000 0.031058
v 0.253923 -0.000000 0.060000
v 0.234853 -0.000000 0.084853
v 0.210000 -0.000000 0.103923
v 0.181058 -0.000000 0.115911
v 0.150000 -0.000000 0.120000
v 0.118942 -0.000000 0.115911
v 0.090000 -0.000000 0.103923
v 0.065147 -0.000000 0.084853
v 0.046077 -0.000000 0.060000
v 0.034089 -0.000000 0.031058
v 0.030000 -0.000000 0.000000
v 0.034089 -0.000000 -0.031058
v 0.046077 -0.000000 -0.060000
v 0.065147 -0.000000 -0.084853
v 0.090000 -0.000000 -0.103923
v 0.118942 -0.000000 -0.115911
v 0.150000 -0.000000 -0.120000
v 0.181058 -0.000000 -0.115911
v 0.210000 -0.000000 -0.103923
v 0.234853 -0.000000 -0.084853
v 0.253923 -0.000000 -0.060000
v 0.265911 -0.000000 -0.031058
v 0.250000 -0.450000 0.000000
v 0.246593 -0.450000 0.025882
v 0.236603 -0.450000 0.050000
v 0.220711 -0.450000 0.070711
v 0.200000 -0.450000 0.086603
v 0.175882 -0.450000 0.096593
v 0.150000 -0.450000 0.100000
v 0.124118 -0.450000 0.096593
v 0.100000 -0.450000 0.086603
v 0.079289 -0.450000 0.070711
v 0.063397 -0.450000 0.050000
v 0.053407 -0.450000 0.025882
v 0.050000 -0.450000 0.000000
v 0.053407 -0.450000 -0.025882
v 0.063397 -0.450000 -0.050000
v 0.079289 -0.450000 -0.070711
v 0.100000 -0.450000 -0.086603
v 0.124118 -0.450000 -0.096593
v 0.150000 -0.450000 -0.100000
v 0.175882 -0.450000 -0.096593
v 0.200000 -0.450000 -0.086603
v 0.220711 -0.450000 -0.070711
v 0.236603 -0.450000 -0.050000
v 0.246593 -0.450000 -0.025882
v 0.240000 -0.900000 0.000000
v 0.236933 -0.900000 0.023294
v 0.227942 -0.900000 0.045000
v 0.213640 -0.900000 0.063640
v 0.195000 -0.900000 0.077942
v 0.173294 -0.900000 0.086933
v 0.150000 -0.900000 0.090000
v 0.126706 -0.900000 0.086933
v 0.105000 -0.900000 0.077942
v 0.086360 -0.900000 0.063640
v 0.072058 -0.900000 0.045000
v 0.063067 -0.900000 0.023294
v 0.060000 -0.900000 0.000000
v 0.063067 -0.900000 -0.023294
v 0.072058 -0.900000 -0.045000
v 0.086360 -0.900000 -0.063640
v 0.105000 -0.900000 -0.077942
v 0.126706 -0.900000 -0.086933
v 0.150000 -0.900000 -0.090000
v 0.173294 -0.900000 -0.086933
v 0.195000 -0.900000 -0.077942
v 0.213640 -0.900000 -0.063640
v 0.227942 -0.900000 -0.045000
v 0.236933 -0.900000 -0.023294
f 1 25 2
f 2 25 26
f 2 26 3
f 3 26 27
f 3 27 4
f 4 27 28
f 4 28 5
f 5 28 29
f 5 29 6
f 6 29 30
f 6 30 7
f 7 30 31
f 7 31 8
f 8 31 32
f 8 32 9
f 9 32 33
f 9 33 10
f 10 33 34
f 10 34 11
f 11 34 35
f 11 35 12
f 12 35 36
f 12 36 13
f 13 36 37
f 13 37 14
f 14 37 38
f 14 38 15
f 15 38 39
f 15 39 16
f 16 39 40
f 16 40 17
f 17 40 41
f 17 41 18
f 18 41 42
f 18 42 19
f 19 42 43
f 19 43 20
f 20 43 44
f 20 44 21
f 21 44 45
f 21 45 22
f 22 45 46
f 22 46 23
f 23 46 47
f 23 47 24
f 24 47 48
f 24 48 1
f 1 48 25
f 49 73 50
f 50 73 74
f 50 74 51
f 51 74 75
f 51 75 52
f 52 75 76
f 52 76 53
f 53 76 77
f 53 77 54
f 54 77 78
f 54 78 55
f 55 78 79
f 55 79 56
f 56 79 80
f 56 80 57
f 57 80 81
f 57 81 58
f 58 81 82
f 58 82 59
f 59 82 83
f 59 83 60
f 60 83 84
f 60 84 61
f 61 84 85
f 61 85 62
f 62 85 86
f 62 86 63
f 63 86 87
f 63 87 64
f 64 87 88
f 64 88 65
f 65 88 89
f 65 89 66
f 66 89 90
f 66 90 67
f 67 90 91
f 67 91 68
f 68 91 92
f 68 92 69
f 69 92 93
f 69 93 70
f 70 93 94
f 70 94 71
f 71 94 95
f 71 95 72
f 72 95 96
f 72 96 49
f 49 96 73
f 73 97 74
f 74 97 98
f 74 98 75
f 75 98 99
f 75 99 76
f 76 99 100
f 76 100 77
f 77 100 101
f 77 101 78
f 78 101 102
f 78 102 79
f 79 102 103
f 79 103 80
f 80 103 104
f 80 104 81
f 81 104 105
f 81 105 82
f 82 105 106
f 82 106 83
f 83 106 107
f 83 107 84
f 84 107 108
f 84 108 85
f 85 108 109
f 85 109 86
f 86 109 110
f 86 110 87
f 87 110 111
f 87 111 88
f 88 111 112
f 88 112 89
f 89 112 113
f 89 113 90
f 90 113 114
f 90 114 91
f 91 114 115
f 91 115 92
f 92 115 116
f 92 116 93
f 93 116 117
f 93 117 94
f 94 117 118
f 94 118 95
f 95 118 119
f 95 119 96
f 96 119 120
f 96 120 73
f 73 120 97
f 121 145 122
f 122 145 146
f 122 146 123
f 123 146 147
f 123 147 124
f 124 147 148
f 124 148 125
f 125 148 149
f 125 149 126
f 126 149 150
f 126 150 127
f 127 150 151
f 127 151 128
f 128 151 152
f 128 152 129
f 129 152 153
f 129 153 130
f 130 153 154
f 130 154 131
f 131 154 155
f 131 155 132
f 132 155 156
f 132 156 133
f 133 156 157
f 133 157 134
f 134 157 158
f 134 158 135
f 135 158 159
f 135 159 136
f 136 159 160
f 136 160 137
f 137 160 161
f 137 161 138
f 138 161 162
f 138 162 139
f 139 162 163
f 139 163 140
f 140 163 164
f 140 164 141
f 141 164 165
f 141 165 142
f 142 165 166
f 142 166 143
f 143 166 167
f 143 167 144
f 144 167 168
f 144 168 121
f 121 168 145
f 145 169 146
f 146 169 170
f 146 170 147
f 147 170 171
f 147 171 148
f 148 171 172
f 148 172 149
f 149 172 173
f 149 173 150
f 150 173 174
f 150 174 151
f 151 174 175
f 151 175 152
f 152 175 176
f 152 176 153
f 153 176 177
f 153 177 154
f 154 177 178
f 154 178 155
f 155 178 179
f 155 179 156
f 156 179 180
f 156 180 157
f 157 180 181
f 157 181 158
f 158 181 182
f 158 182 159
f 159 182 183
f 159 183 160
f 160 183 184
f 160 184 161
f 161 184 185
f 161 185 162
f 162 185 186
f 162 186 163
f 163 186 187
f 163 187 164
f 164 187 188
f 164 188 165
f 165 188 189
f 165 189 166
f 166 189 190
f 166 190 167
f 167 190 191
f 167 191 168
f 168 191 192
f 168 192 145
f 145 192 169
