{
    "asset": {
        "version": "2.0",
        "generator": "Open Asset Import Library (assimp v5.2.cf7d3637)"
    },
    "extensionsUsed": [
        "KHR_materials_volume",
        "FB_ngon_encoding"
    ],
    "accessors": [
        {
            "bufferView": 0,
            "byteOffset": 0,
            "componentType": 5126,
            "count": 6144,
            "type": "VEC3",
            "max": [
                0.550000011920929,
                -0.0,
                0.16666699945926667
            ],
            "min": [
                -0.550000011920929,
                -0.699999988079071,
                -0.16666699945926667
            ]
        },
        {
            "bufferView": 1,
            "byteOffset": 0,
            "componentType": 5126,
            "count": 6144,
            "type": "VEC3",
            "max": [
                0.9886483550071716,
                0.993002712726593,
                0.997570812702179
            ],
            "min": [
                -0.9886483550071716,
                -0.993002712726593,
                -0.997570812702179
            ]
        },
        {
            "bufferView": 2,
            "byteOffset": 0,
            "componentType": 5125,
            "count": 6144,
            "type": "SCALAR",
            "max": [
                6143
            ],
            "min": [
                0
            ]
        }
    ],
    "buffers": [
        {
            "byteLength": 172032,
            "uri": "result.bin"
        }
    ],
    "bufferViews": [
        {
            "buffer": 0,
            "byteOffset": 0,
            "byteLength": 73728,
            "target": 34962
        },
        {
            "buffer": 0,
            "byteOffset": 73728,
            "byteLength": 73728,
            "target": 34962
        },
        {
            "buffer": 0,
            "byteOffset": 147456,
            "byteLength": 24576,
            "target": 34963
        }
    ],
    "materials": [
        {
            "name": "material",
            "pbrMetallicRoughness": {
                "metallicFactor": 0.0
            }
        },
        {
            "name": "material"
        }
    ],
    "meshes": [
        {
            "name": "meshes[0]",
            "primitives": [
                {
                    "mode": 4,
                    "material": 0,
                    "indices": 2,
                    "attributes": {
                        "POSITION": 0,
                        "NORMAL": 1
                    }
                }
            ]
        }
    ],
    "nodes": [
        {
            "name": "empty_2",
            "children": [
                1
            ]
        },
        {
            "name": "empty_3",
            "mesh": 0
        }
    ],
    "scenes": [
        {
            "nodes": [
                0
            ]
        }
    ],
    "scene": 0
}